<svg xmlns="http://www.w3.org/2000/svg" width="50.901" height="50.903" viewBox="0 0 50.901 50.903">
  <defs>
    <style>
      .cls-1 {
        fill: #58bdaa;
      }

      .cls-2 {
        opacity: 0.2;
      }

      .cls-3 {
        fill: #9f616a;
      }

      .cls-4 {
        fill: #f6a5a5;
      }

      .cls-5 {
        fill: #2f2e41;
      }
    </style>
  </defs>
  <g id="Group_69" data-name="Group 69" transform="translate(0)">
    <path id="Path_80" data-name="Path 80" class="cls-1" d="M312.9,137.45a25.364,25.364,0,0,1-2.05,10.022l-.084.194a25.493,25.493,0,0,1-27.733,14.852q-.229-.041-.458-.084a25.225,25.225,0,0,1-4.6-1.358q-.363-.146-.72-.3c-.163-.071-.325-.144-.486-.219A25.453,25.453,0,1,1,312.9,137.45Z" transform="translate(-262 -112)"/>
    <path id="Path_81" data-name="Path 81" class="cls-2" d="M408.692,362.579q-.229-.041-.458-.084a104.645,104.645,0,0,0-1.6-15.006,55.674,55.674,0,0,0-2.745-9.982,31.057,31.057,0,0,0-1.436-3.15,16.337,16.337,0,0,0-4.56-5.64l.268-.366a15.746,15.746,0,0,1,4.083,4.674q.543.9,1.044,1.923.536,1.093,1.023,2.321.311.782.6,1.617a58.708,58.708,0,0,1,2.143,8.281q.2,1.028.372,2.106A106.788,106.788,0,0,1,408.692,362.579Z" transform="translate(-387.658 -312.059)"/>
    <path id="Path_82" data-name="Path 82" class="cls-2" d="M406.3,607.129c-.163-.071-.325-.144-.486-.219a36.967,36.967,0,0,0-.975-5.842,19.171,19.171,0,0,0-.889-2.651,7.953,7.953,0,0,0-2.394-3.352l.268-.365a8.321,8.321,0,0,1,2.5,3.429,23.524,23.524,0,0,1,1.5,5.284C406.064,604.745,406.212,606.031,406.3,607.129Z" transform="translate(-391.051 -558.354)"/>
    <circle id="Ellipse_15" data-name="Ellipse 15" class="cls-2" cx="2.266" cy="2.266" r="2.266" transform="translate(5.434 12.115)"/>
    <circle id="Ellipse_16" data-name="Ellipse 16" class="cls-2" cx="2.266" cy="2.266" r="2.266" transform="translate(6.164 31.617)"/>
    <path id="Path_83" data-name="Path 83" class="cls-2" d="M482.181,296.407a10.063,10.063,0,0,0,.58,5.165,9.171,9.171,0,0,0,1.74-9.816A10.064,10.064,0,0,0,482.181,296.407Z" transform="translate(-465.486 -278.221)"/>
    <path id="Path_84" data-name="Path 84" class="cls-2" d="M332.4,398.734a10.113,10.113,0,0,0,5.183.339,9.227,9.227,0,0,0-9.362-3.423A10.113,10.113,0,0,0,332.4,398.734Z" transform="translate(-323.231 -374.114)"/>
    <path id="Path_85" data-name="Path 85" class="cls-2" d="M341.954,639.992a7.053,7.053,0,0,0,3.636.23,6.428,6.428,0,0,0-6.562-2.4A7.054,7.054,0,0,0,341.954,639.992Z" transform="translate(-333.228 -598.102)"/>
    <circle id="Ellipse_17" data-name="Ellipse 17" class="cls-3" cx="9.922" cy="9.922" r="9.922" transform="translate(15.476 11.243)"/>
    <path id="Path_86" data-name="Path 86" class="cls-3" d="M547.833,455.888s1.24,5.891,1.24,6.511,5.891,3.411,5.891,3.411l5.271-.93,1.86-5.581s-3.1-4.651-3.1-6.511Z" transform="translate(-526.311 -427.127)"/>
    <path id="Path_87" data-name="Path 87" class="cls-4" d="M426.661,522.236l-.084.194a25.493,25.493,0,0,1-27.733,14.852q-.229-.041-.458-.084a25.218,25.218,0,0,1-4.6-1.358q-.363-.146-.72-.3c-.163-.071-.325-.144-.486-.219a25.414,25.414,0,0,1-4.16-2.431l-1.176-3.412.661-.5,1.36-1.038,1.451-1.108.377-.288,5.693-4.346.42-.321,2.959-2.259h0s3.2,5.214,7.851,3.664a6.413,6.413,0,0,0,4.549-6Z" transform="translate(-377.81 -486.763)"/>
    <path id="Path_88" data-name="Path 88" class="cls-5" d="M456.378,219.541s3.15-6.825,9.188-5.25,9.451,3.938,9.713,6.3a33.709,33.709,0,0,1-.131,5.907s-.656-4.857-4.857-3.806-10.763.263-10.763.263l-1.05,9.451s-1.181-1.706-2.494-.656S452.178,221.641,456.378,219.541Z" transform="translate(-439.585 -206.37)"/>
    <path id="Path_89" data-name="Path 89" class="cls-4" d="M378.322,685.633q-.363-.146-.72-.3c-.163-.071-.325-.144-.486-.219a25.514,25.514,0,0,1-6.6-4.42,8.924,8.924,0,0,1,1.259-1.422h4.651l.7,2.345Z" transform="translate(-362.349 -636.556)"/>
    <path id="Path_90" data-name="Path 90" class="cls-4" d="M853.184,576.32l3.99.7a25.448,25.448,0,0,1-4.274,6.669Z" transform="translate(-808.407 -541.358)"/>
  </g>
</svg>
