<svg xmlns="http://www.w3.org/2000/svg" xmlns:xlink="http://www.w3.org/1999/xlink" width="138" height="138" viewBox="0 0 138 138">
  <defs>
    <style>
      .cls-1 {
        fill: #f6a5a5;
      }

      .cls-2, .cls-3 {
        fill: #fff;
      }

      .cls-3 {
        font-size: 20px;
        font-family: Stolzl-Medium, Stolzl;
        font-weight: 500;
      }

      .cls-4 {
        filter: url(#Path_228);
      }
    </style>
    <filter id="Path_228" x="0" y="0" width="138" height="138" filterUnits="userSpaceOnUse">
      <feOffset dy="3" input="SourceAlpha"/>
      <feGaussianBlur stdDeviation="3" result="blur"/>
      <feFlood flood-opacity="0.161"/>
      <feComposite operator="in" in2="blur"/>
      <feComposite in="SourceGraphic"/>
    </filter>
  </defs>
  <g id="Group_66" data-name="Group 66" transform="translate(-240 -675)">
    <g id="Group_147" data-name="Group 147" transform="translate(209 175)">
      <path id="Path_227" data-name="Path 227" class="cls-1" d="M60,120a60,60,0,1,1,60-60A59.95,59.95,0,0,1,60,120ZM60,14.118A45.882,45.882,0,1,0,105.882,60,45.791,45.791,0,0,0,60,14.118Z" transform="translate(40 506)"/>
      <g class="cls-4" transform="matrix(1, 0, 0, 1, 31, 500)">
        <path id="Path_228-2" data-name="Path 228" class="cls-2" d="M60,120A60,60,0,0,1,60,0a7.059,7.059,0,1,1,0,14.118A45.882,45.882,0,1,0,105.882,60,7.059,7.059,0,1,1,120,60,59.95,59.95,0,0,1,60,120Z" transform="translate(9 6)"/>
      </g>
    </g>
    <text id="_49_min" data-name="49 min" class="cls-3" transform="translate(278 748)"><tspan x="0" y="0">49 min</tspan></text>
  </g>
</svg>
