<svg xmlns="http://www.w3.org/2000/svg" width="34.875" height="34.875" viewBox="0 0 34.875 34.875">
  <defs>
    <style>
      .cls-1 {
        fill: #fff;
      }
    </style>
  </defs>
  <path id="Icon_awesome-spotify" data-name="Icon awesome-spotify" class="cls-1" d="M17.438.563A17.438,17.438,0,1,0,34.875,18,17.444,17.444,0,0,0,17.438.563Zm7.08,25.657a1.342,1.342,0,0,1-.752-.253c-4.388-2.644-9.492-2.756-14.534-1.723a4.54,4.54,0,0,1-.837.183,1.1,1.1,0,0,1-1.111-1.111,1.114,1.114,0,0,1,.956-1.181C14,20.862,19.884,20.974,24.9,23.977a1.189,1.189,0,0,1,.682,1.16,1.062,1.062,0,0,1-1.069,1.083Zm1.891-4.612a1.736,1.736,0,0,1-.865-.3A22.786,22.786,0,0,0,8.768,19.245a2.9,2.9,0,0,1-.837.183,1.365,1.365,0,0,1-1.364-1.364,1.383,1.383,0,0,1,1.09-1.455,23.65,23.65,0,0,1,6.877-.956,24.613,24.613,0,0,1,12.445,3.2,1.466,1.466,0,0,1,.795,1.385,1.362,1.362,0,0,1-1.364,1.371Zm2.18-5.358a1.617,1.617,0,0,1-.907-.274c-5.006-2.988-13.957-3.705-19.751-2.088a3.34,3.34,0,0,1-.907.183A1.623,1.623,0,0,1,5.386,12.41a1.661,1.661,0,0,1,1.223-1.68,29.469,29.469,0,0,1,8.262-1.069c5.133,0,10.512,1.069,14.442,3.361a1.651,1.651,0,0,1,.907,1.589,1.629,1.629,0,0,1-1.631,1.638Z" transform="translate(0 -0.563)"/>
</svg>
