<svg xmlns="http://www.w3.org/2000/svg" width="20.734" height="20.73" viewBox="0 0 20.734 20.73">
  <path id="Icon_awesome-instagram" data-name="Icon awesome-instagram" d="M10.364,7.288A5.315,5.315,0,1,0,15.679,12.6,5.306,5.306,0,0,0,10.364,7.288Zm0,8.77A3.455,3.455,0,1,1,13.819,12.6a3.462,3.462,0,0,1-3.455,3.455ZM17.136,7.07a1.24,1.24,0,1,1-1.24-1.24A1.237,1.237,0,0,1,17.136,7.07Zm3.52,1.258a6.135,6.135,0,0,0-1.674-4.343,6.175,6.175,0,0,0-4.343-1.674c-1.711-.1-6.841-.1-8.553,0A6.166,6.166,0,0,0,1.742,3.98,6.155,6.155,0,0,0,.068,8.324c-.1,1.711-.1,6.841,0,8.553A6.135,6.135,0,0,0,1.742,21.22a6.183,6.183,0,0,0,4.343,1.674c1.711.1,6.841.1,8.553,0a6.135,6.135,0,0,0,4.343-1.674,6.175,6.175,0,0,0,1.674-4.343c.1-1.711.1-6.837,0-8.548ZM18.445,18.713a3.5,3.5,0,0,1-1.971,1.971c-1.365.541-4.6.416-6.11.416s-4.75.12-6.11-.416a3.5,3.5,0,0,1-1.971-1.971c-.541-1.365-.416-4.6-.416-6.11s-.12-4.75.416-6.11A3.5,3.5,0,0,1,4.254,4.522c1.365-.541,4.6-.416,6.11-.416s4.75-.12,6.11.416a3.5,3.5,0,0,1,1.971,1.971c.541,1.365.416,4.6.416,6.11S18.986,17.353,18.445,18.713Z" transform="translate(0.005 -2.238)" fill="#f6a5a5"/>
</svg>
