<svg xmlns="http://www.w3.org/2000/svg" xmlns:xlink="http://www.w3.org/1999/xlink" width="117.615" height="82.748" viewBox="0 0 117.615 82.748">
  <defs>
    <style>
      .cls-1 {
        fill: #f5fdff;
      }

      .cls-1, .cls-4, .cls-5 {
        opacity: 0.2;
      }

      .cls-14, .cls-2 {
        fill: #fff;
      }

      .cls-2 {
        opacity: 0.5;
      }

      .cls-3 {
        fill: #7fcdbf;
      }

      .cls-17, .cls-6 {
        fill: none;
        stroke-miterlimit: 10;
      }

      .cls-6 {
        stroke: #000;
      }

      .cls-7 {
        fill: #6c63ff;
      }

      .cls-8 {
        fill: url(#linear-gradient);
      }

      .cls-9 {
        fill: #965d7b;
      }

      .cls-10 {
        fill: #575988;
      }

      .cls-11 {
        opacity: 0.05;
      }

      .cls-12 {
        fill: #f7c4a7;
      }

      .cls-13, .cls-16 {
        opacity: 0.1;
      }

      .cls-14 {
        opacity: 0.07;
      }

      .cls-15 {
        fill: #fc6681;
      }

      .cls-16 {
        fill: #252223;
      }

      .cls-17 {
        stroke: #535461;
        stroke-width: 2px;
      }
    </style>
    <linearGradient id="linear-gradient" x1="0.5" y1="1" x2="0.5" gradientUnits="objectBoundingBox">
      <stop offset="0" stop-color="gray" stop-opacity="0.251"/>
      <stop offset="0.54" stop-color="gray" stop-opacity="0.122"/>
      <stop offset="1" stop-color="gray" stop-opacity="0.102"/>
    </linearGradient>
  </defs>
  <g id="Group_84" data-name="Group 84" transform="translate(0 -0.008)">
    <path id="Path_108" data-name="Path 108" class="cls-1" d="M202.134,109.048a5.563,5.563,0,0,0-3.976,1.771c-1.131,1.495-.979,3.767-.467,5.66s1.322,3.737,1.313,5.72a8.8,8.8,0,0,1-4.623,7.236c-2.449,1.41-5.213,1.865-7.857,2.688a30.568,30.568,0,0,0-7.018,3.216,9.67,9.67,0,0,0-4.479,4.942c-1.222,3.736,1.026,7.7,3.245,10.769,6.806,9.406,15.482,18.43,26.088,19.344,7.923.677,15.854-3.33,23.69-1.86,3.6.673,6.954,2.467,10.333,4.047s6.934,2.985,10.577,2.806a10.212,10.212,0,0,0,9-6.029c.933-2.236,1.027-4.83,1.889-7.1,2.641-6.975,10.873-8.107,15.649-13.356,2.508-2.757,3.94-6.543,5.134-10.3,1.928-6.1,3.374-12.538,3.052-19.027-.141-2.825-.669-5.759-2.236-7.939a15.227,15.227,0,0,0-4.287-3.659c-3.539-2.319-7.339-4.713-11.4-4.437-2.343.159-4.559,1.2-6.794,2.018a74.894,74.894,0,0,1-13.119,3.079c-7.3,1.254-14.709,2.508-22.109,1.882-3.268-.278-6.355-1.389-9.57-1.844A45.75,45.75,0,0,0,202.134,109.048Z" transform="translate(-166.66 -103.51)"/>
    <circle id="Ellipse_24" data-name="Ellipse 24" class="cls-2" cx="4.537" cy="4.537" r="4.537" transform="translate(89.913 15.765)"/>
    <path id="Path_109" data-name="Path 109" class="cls-3" d="M365.121,250.272H323.6l2.373-7.3h1.272l.254,1.894h32.877l.17-1.894h1.525Z" transform="translate(-284.96 -213.951)"/>
    <path id="Path_110" data-name="Path 110" class="cls-4" d="M365.121,250.272H323.6l2.373-7.3h1.272l.254,1.894h32.877l.17-1.894h1.525Z" transform="translate(-284.96 -213.951)"/>
    <path id="Path_111" data-name="Path 111" class="cls-3" d="M331.757,295.774h-48.13L282.44,292.8h50.335Z" transform="translate(-248.715 -257.831)"/>
    <path id="Path_112" data-name="Path 112" class="cls-3" d="M338.986,319.6h-45.42l-1.186-1.894h48.13Z" transform="translate(-257.468 -279.767)"/>
    <rect id="Rectangle_34" data-name="Rectangle 34" class="cls-3" width="45.419" height="2.164" transform="translate(36.098 39.296)"/>
    <rect id="Rectangle_35" data-name="Rectangle 35" class="cls-3" width="51.69" height="8.114" transform="translate(33.386 44.975)"/>
    <rect id="Rectangle_36" data-name="Rectangle 36" class="cls-4" width="51.69" height="8.114" transform="translate(33.386 43.975)"/>
    <path id="Path_113" data-name="Path 113" class="cls-3" d="M117.615,457.763,0,456.952l3.39-19.2H115.073Z" transform="translate(0 -385.473)"/>
    <g id="Group_83" data-name="Group 83" class="cls-5" transform="translate(31.523 66.341)">
      <path id="Path_114" data-name="Path 114" d="M265.791,555.53h1.5a1.791,1.791,0,0,1,1.791,1.791v3.618H264v-3.618A1.791,1.791,0,0,1,265.791,555.53Z" transform="translate(-264 -555.53)"/>
      <path id="Path_115" data-name="Path 115" d="M358.041,555.53h1.5a1.791,1.791,0,0,1,1.791,1.791v3.618H356.25v-3.618A1.791,1.791,0,0,1,358.041,555.53Z" transform="translate(-345.235 -555.53)"/>
      <path id="Path_116" data-name="Path 116" d="M473,555.53h1.5a1.791,1.791,0,0,1,1.791,1.791v3.618H471.21v-3.618A1.791,1.791,0,0,1,473,555.53Z" transform="translate(-446.468 -555.53)"/>
      <path id="Path_117" data-name="Path 117" d="M592.221,555.53h1.5a1.791,1.791,0,0,1,1.791,1.791v3.618H590.43v-3.618A1.791,1.791,0,0,1,592.221,555.53Z" transform="translate(-551.452 -555.53)"/>
      <path id="Path_118" data-name="Path 118" d="M687.321,555.53h1.5a1.791,1.791,0,0,1,1.791,1.791v3.618H685.53v-3.618A1.791,1.791,0,0,1,687.321,555.53Z" transform="translate(-635.197 -555.53)"/>
    </g>
    <rect id="Rectangle_37" data-name="Rectangle 37" class="cls-4" width="5.423" height="10.818" transform="translate(56.096 53.089)"/>
    <circle id="Ellipse_25" data-name="Ellipse 25" class="cls-6" transform="translate(22.371 75.535)"/>
    <rect id="Rectangle_38" data-name="Rectangle 38" class="cls-3" width="0.848" height="8.114" transform="translate(33.386 44.975)"/>
    <rect id="Rectangle_39" data-name="Rectangle 39" class="cls-3" width="0.848" height="8.114" transform="translate(38.301 44.975)"/>
    <rect id="Rectangle_40" data-name="Rectangle 40" class="cls-3" width="0.848" height="8.114" transform="translate(43.724 44.975)"/>
    <rect id="Rectangle_41" data-name="Rectangle 41" class="cls-3" width="0.848" height="8.114" transform="translate(48.978 44.975)"/>
    <rect id="Rectangle_42" data-name="Rectangle 42" class="cls-7" width="0.848" height="8.114" transform="translate(54.741 44.975)"/>
    <rect id="Rectangle_43" data-name="Rectangle 43" class="cls-7" width="0.848" height="8.114" transform="translate(62.536 44.975)"/>
    <rect id="Rectangle_44" data-name="Rectangle 44" class="cls-7" width="0.848" height="8.114" transform="translate(67.789 44.975)"/>
    <rect id="Rectangle_45" data-name="Rectangle 45" class="cls-3" width="0.848" height="8.114" transform="translate(73.722 44.975)"/>
    <rect id="Rectangle_46" data-name="Rectangle 46" class="cls-3" width="0.848" height="8.114" transform="translate(78.806 44.975)"/>
    <rect id="Rectangle_47" data-name="Rectangle 47" class="cls-3" width="0.848" height="8.114" transform="translate(84.229 44.975)"/>
    <path id="Path_119" data-name="Path 119" class="cls-3" d="M308.8,361.185H257.11l-3.05-2.7h57.621Z" transform="translate(-223.724 -315.668)"/>
    <rect id="Rectangle_48" data-name="Rectangle 48" class="cls-3" width="2.033" height="1.082" transform="translate(33.386 45.516)"/>
    <rect id="Rectangle_49" data-name="Rectangle 49" class="cls-3" width="2.033" height="1.082" transform="translate(37.793 45.516)"/>
    <rect id="Rectangle_50" data-name="Rectangle 50" class="cls-3" width="2.033" height="1.082" transform="translate(43.046 45.516)"/>
    <rect id="Rectangle_51" data-name="Rectangle 51" class="cls-7" width="2.033" height="1.082" transform="translate(48.47 45.516)"/>
    <rect id="Rectangle_52" data-name="Rectangle 52" class="cls-7" width="2.033" height="1.082" transform="translate(54.232 45.516)"/>
    <rect id="Rectangle_53" data-name="Rectangle 53" class="cls-7" width="2.033" height="1.082" transform="translate(61.859 45.516)"/>
    <rect id="Rectangle_54" data-name="Rectangle 54" class="cls-7" width="2.033" height="1.082" transform="translate(67.282 45.516)"/>
    <rect id="Rectangle_55" data-name="Rectangle 55" class="cls-3" width="2.033" height="1.082" transform="translate(73.213 45.516)"/>
    <rect id="Rectangle_56" data-name="Rectangle 56" class="cls-3" width="2.033" height="1.082" transform="translate(78.297 45.516)"/>
    <rect id="Rectangle_57" data-name="Rectangle 57" class="cls-3" width="2.033" height="1.082" transform="translate(83.043 45.516)"/>
    <path id="Path_120" data-name="Path 120" class="cls-3" d="M305.768,344.523h-58.13l-.678-1.893h59.316Z" transform="translate(-217.471 -301.711)"/>
    <path id="Path_121" data-name="Path 121" class="cls-4" d="M305.768,344.523h-58.13l-.678-1.893h59.316Z" transform="translate(-217.471 -301.711)"/>
    <ellipse id="Ellipse_26" data-name="Ellipse 26" class="cls-7" cx="1.355" cy="2.164" rx="1.355" ry="2.164" transform="translate(57.452 37.943)"/>
    <ellipse id="Ellipse_27" data-name="Ellipse 27" class="cls-4" cx="1.355" cy="2.164" rx="1.355" ry="2.164" transform="translate(57.452 37.943)"/>
    <ellipse id="Ellipse_28" data-name="Ellipse 28" class="cls-7" cx="0.848" cy="1.352" rx="0.848" ry="1.352" transform="translate(57.96 38.755)"/>
    <path id="Path_122" data-name="Path 122" class="cls-8" d="M416.454,403.7l-5.813-4.461s-.469-1.859-.657-3.161-.469-6.878-.469-6.878a8.1,8.1,0,0,0,.264-1.476c.057-.012.119-.026.173-.042a2.9,2.9,0,0,0,1.957-1.687c.6-1.485-.174-3.241-1.151-4.418s-2.205-2.123-2.848-3.582c-.793-1.8-.522-3.971-.927-5.939a1.791,1.791,0,0,0-.3-.768,1.989,1.989,0,0,0-.995-.5,5.466,5.466,0,0,1-2.588-2.594c-1.05-1.821-2.136-4.59-4.3-4.748-.8-.059-1.643.213-2.455.21a27.221,27.221,0,0,0-3.757.189,2.542,2.542,0,0,0-1.282.439c-1.279,1.011-.7,3.685-1.932,4.776a5.974,5.974,0,0,1-1.25.661c-1.562.836-2.256,3.065-2.164,5.071a4.489,4.489,0,0,0,.794,2.605c.439.549,1.066.865,1.476,1.444a5.334,5.334,0,0,1,.5,3.435,3.619,3.619,0,0,0-1.816,1.253c-.75,1.533-.657,6.785-.657,6.785s.282,8.6-1.875,9.672l-8.064,5.576s-5.72-4.972-7.126-2.044c-.962,2,2.549,3.136,4.865,3.651-1.46,1.036-2.269,2.952-1.583,4.25,1.075,2.044,4.079,3.439,4.079,3.439s11.457.553,16.753-.634h.087a31.779,31.779,0,0,0,8.062.578c.049.119.084.2.084.2s16.6,1.395,19.6-4.276c1.539-2.908-.067-4.251-2-4.869,2.16-.172,4.62-.776,4.9-2.613C424.564,399.886,416.454,403.7,416.454,403.7Zm-1.672,1.778a16.993,16.993,0,0,1-6.815,1.085c-.646-1.405-3.334-7.5-3.4-11.574a4.616,4.616,0,0,1,.542-2.3,5.6,5.6,0,0,0,.986-3.06v-.167a3.114,3.114,0,0,0-.068-.7,1.829,1.829,0,0,1,.111,1c-.282,1.441.469,10.781.469,10.781s.609,2.091,1.875,2.7Zm-29.738-.66,2.906-1.859a2.854,2.854,0,0,0,1.5-2.233l.955-7.55a7.77,7.77,0,0,0,.258.955,7.3,7.3,0,0,1,.252,2.086,76.519,76.519,0,0,1-1.465,11.2h.018l-.011.05-.1.006c-2.358-.072-7.853-.277-10.93-.7Zm-5.093,4.4v.017h-.716Z" transform="translate(-337.805 -332.388)"/>
    <path id="Path_123" data-name="Path 123" class="cls-9" d="M530.288,375.392a5.3,5.3,0,0,0,2.5,2.529,1.875,1.875,0,0,1,.955.491,1.76,1.76,0,0,1,.289.749c.39,1.919.129,4.038.9,5.791.621,1.42,1.809,2.345,2.754,3.49s1.686,2.857,1.113,4.3a2.81,2.81,0,0,1-1.883,1.645,5.619,5.619,0,0,1-2.418-.018,6.4,6.4,0,0,1-3.016-1.194c-1.525-1.238-2.17-3.463-2.967-5.44a3.772,3.772,0,0,0-1.7-2.229A2.312,2.312,0,0,0,524.2,386.7a10.861,10.861,0,0,0-1.181,3.224,7.155,7.155,0,0,1-1.637,3.419,2.756,2.756,0,0,1-2.942.589,3.561,3.561,0,0,1-1.979-2.638c-.347-1.846.485-4.06-.536-5.519-.4-.565-1-.873-1.433-1.408a4.445,4.445,0,0,1-.768-2.54c-.09-1.956.581-4.135,2.091-4.945a5.682,5.682,0,0,0,1.208-.645c1.194-1.06.632-3.667,1.867-4.657a2.448,2.448,0,0,1,1.239-.429,25.635,25.635,0,0,1,3.631-.184c.786,0,1.6-.262,2.374-.2C528.224,370.917,529.271,373.617,530.288,375.392Z" transform="translate(-465.209 -338.834)"/>
    <path id="Path_124" data-name="Path 124" class="cls-10" d="M357.29,622.815l.457,5.417,31.987-.19-.609-5.914L378.31,620.87l-18.964,1.144Z" transform="translate(-314.627 -546.727)"/>
    <path id="Path_125" data-name="Path 125" class="cls-11" d="M357.29,622.815l.457,5.417,31.987-.19-.609-5.914L378.31,620.87l-18.964,1.144Z" transform="translate(-314.627 -546.727)"/>
    <path id="Path_126" data-name="Path 126" class="cls-12" d="M562.529,772.39l-10.649,1s7.3,1.858,11.555.955Z" transform="translate(-498.818 -692.515)"/>
    <path id="Path_127" data-name="Path 127" class="cls-13" d="M562.529,772.39l-10.649,1s7.3,1.858,11.555.955Z" transform="translate(-498.818 -692.515)"/>
    <path id="Path_128" data-name="Path 128" class="cls-12" d="M554.521,452.86s2.085,5.483-1,7.93-.543,9.29-.543,9.29l11.873-.543s1.179-7.7.543-9.335c0,0-2.81.816-3.444-.906a40.247,40.247,0,0,1-1.088-6.435Z" transform="translate(-498.922 -411.139)"/>
    <path id="Path_129" data-name="Path 129" class="cls-10" d="M420.281,722.87s-10.015-.227-12.959-.955-5.483,2.764-4.441,4.758,3.94,3.353,3.94,3.353,14.908.725,18.126-1.313c0,0,1.224-3.489,0-4.169H409.407l11.463-.227Z" transform="translate(-367.401 -647.98)"/>
    <path id="Path_130" data-name="Path 130" class="cls-10" d="M642.01,713.882a15.039,15.039,0,0,0,7.975-1.088s8.655-.272,5.755,5.254-18.941,4.168-18.941,4.168-.955-2.039,0-2.583,9.244-4.032,11.821-3.852l-7.164,1.4Z" transform="translate(-573.223 -640.033)"/>
    <path id="Path_131" data-name="Path 131" class="cls-13" d="M580.889,457.673c-.173-1.291-.275-2.343-.275-2.343H574.27a12.366,12.366,0,0,1,.607,2.565A4.985,4.985,0,0,0,580.889,457.673Z" transform="translate(-518.535 -413.314)"/>
    <circle id="Ellipse_29" data-name="Ellipse 29" class="cls-12" cx="4.984" cy="4.984" r="4.984" transform="translate(54.082 35.219)"/>
    <path id="Path_132" data-name="Path 132" class="cls-12" d="M400.763,508.822s-5.981,1.133-6.706,2.627-.634,6.616-.634,6.616.272,8.384-1.813,9.425l-7.794,5.438s-5.529-4.849-6.887-1.994,6.526,3.9,6.526,3.9l8.791-2.627,2.81-1.813a2.792,2.792,0,0,0,1.45-2.176l1.179-9.335,4.713-1.359h7.61l1.02-2.911s1.881,1.507,1.608,2.911.453,10.508.453,10.508.589,2.039,1.813,2.627l7.07,2.546s7.477.725,7.975-2.537-7.341.453-7.341.453l-5.619-4.35s-.453-1.813-.634-3.082-.453-6.706-.453-6.706,1.722-5.71-3.262-6.706L406.2,508.28Z" transform="translate(-344.619 -459.941)"/>
    <path id="Path_133" data-name="Path 133" class="cls-13" d="M542.251,511.588l.929,6.14a9.883,9.883,0,0,0,0,5.665c.955,2.81-1.18,13.277-1.18,13.277s11.192,3.582,18.03-.543c0,0-5.029-10.6-2.9-14.138s.035-4.917.035-4.917l.334-6.5-1.54-.453-.906,6.423s-6.253,4.35-10.876.543l-1-6.978Z" transform="translate(-490.118 -461.552)"/>
    <path id="Path_134" data-name="Path 134" class="cls-14" d="M563.2,570.9a3.669,3.669,0,0,0-4.751-1.336A6.959,6.959,0,0,0,563.2,570.9Z" transform="translate(-504.604 -513.564)"/>
    <path id="Path_135" data-name="Path 135" class="cls-14" d="M619.75,565.2a3.669,3.669,0,0,1,4.751-1.336A6.951,6.951,0,0,1,619.75,565.2Z" transform="translate(-558.584 -508.545)"/>
    <path id="Path_136" data-name="Path 136" class="cls-13" d="M542.251,509.3l.929,5.822a9.883,9.883,0,0,0,0,5.665c.955,2.81-1.18,13.277-1.18,13.277s11.192,3.582,18.03-.543c0,0-5.029-10.6-2.9-14.138s.035-4.917.035-4.917l.327-6.5-1.54-.453-.906,6.435s-6.253,4.35-10.876.543l-1-6.978Z" transform="translate(-490.118 -459.263)"/>
    <path id="Path_137" data-name="Path 137" class="cls-15" d="M542.205,509.923l.974,5.958a9.883,9.883,0,0,0,0,5.665c.955,2.81-1.18,13.277-1.18,13.277s11.192,3.582,18.03-.543c0,0-5.029-10.6-2.9-14.138s.035-4.917.035-4.917l.327-6.5-1.54-.453-.906,6.435s-6.253,4.35-10.876.543l-1-6.978Z" transform="translate(-490.118 -459.932)"/>
    <path id="Path_138" data-name="Path 138" class="cls-12" d="M582.24,733.447l2.359-.318s2.719-3.489,4.668-.816c0,0,.816,1.722,1.813,2.039a13.387,13.387,0,0,0,2.085.453l-4.032,1.133a6.283,6.283,0,0,1-3.625.77,7.044,7.044,0,0,0-3.262.272Z" transform="translate(-525.553 -656.336)"/>
    <path id="Path_139" data-name="Path 139" class="cls-13" d="M560.42,621.658s4.259.634,4.984-.5" transform="translate(-506.338 -559.342)"/>
    <path id="Path_140" data-name="Path 140" class="cls-13" d="M628,619.26s.816.816,4.078.227" transform="translate(-565.849 -557.669)"/>
    <path id="Path_141" data-name="Path 141" class="cls-13" d="M558.52,513.38s3.126.453,3.716.182" transform="translate(-504.665 -464.432)"/>
    <path id="Path_142" data-name="Path 142" class="cls-13" d="M616.21,513.38s3.126.453,3.716.182" transform="translate(-555.467 -464.432)"/>
    <path id="Path_143" data-name="Path 143" class="cls-13" d="M569.715,746.39s.861,4.06,0,4.2a3.1,3.1,0,0,1-2.085-.759c0-.091.543-2.674.543-2.674Z" transform="translate(-512.687 -669.619)"/>
    <path id="Path_144" data-name="Path 144" class="cls-10" d="M568.955,746.39s.861,4.06,0,4.2a3.1,3.1,0,0,1-2.085-.759c0-.091.543-2.674.543-2.674Z" transform="translate(-512.018 -669.619)"/>
    <path id="Path_145" data-name="Path 145" class="cls-13" d="M546.472,483.158a3.481,3.481,0,0,0-.111,2.8c.308.665.91,1.2,1.026,1.927.146.907-.527,1.83-.276,2.714a2.486,2.486,0,0,0,.546.894,3.52,3.52,0,0,0,2.672,1.542c.168-1.645-1.254-3.242-.788-4.829a14.215,14.215,0,0,1,.8-1.583,5.318,5.318,0,0,0,.195-2.9c-.207-1.408-.73-3.136-2.125-3.795-.642-.3-1.552-.325-1.782.5-.119.439.167.853.207,1.282A2.837,2.837,0,0,1,546.472,483.158Z" transform="translate(-493.742 -434.804)"/>
    <path id="Path_146" data-name="Path 146" class="cls-9" d="M546.472,482.018a3.481,3.481,0,0,0-.111,2.8c.308.665.91,1.2,1.026,1.927.146.908-.527,1.831-.276,2.714a2.487,2.487,0,0,0,.546.894,3.52,3.52,0,0,0,2.672,1.542c.168-1.645-1.254-3.242-.788-4.829a14.211,14.211,0,0,1,.8-1.583,5.318,5.318,0,0,0,.195-2.9c-.207-1.408-.73-3.136-2.125-3.795-.642-.3-1.552-.325-1.782.5-.119.439.167.853.207,1.282A2.831,2.831,0,0,1,546.472,482.018Z" transform="translate(-493.742 -433.8)"/>
    <path id="Path_147" data-name="Path 147" class="cls-13" d="M552.07,389.064s6.616-.906,6.8.453,6.026,3.582,6.026,3.582l-1.45-3.582-2.674-4.441s-4.9-.358-5.12,0a16.513,16.513,0,0,1-2.81,1.54Z" transform="translate(-498.985 -351.308)"/>
    <path id="Path_148" data-name="Path 148" class="cls-9" d="M552.07,388.313s6.616-.906,6.8.453,6.026,3.582,6.026,3.582l-1.45-3.582-2.674-4.44s-4.9-.358-5.12,0a16.513,16.513,0,0,1-2.81,1.54Z" transform="translate(-498.985 -350.648)"/>
    <path id="Path_149" data-name="Path 149" class="cls-13" d="M644.566,492.845a3.224,3.224,0,0,1,.664,1.329c.11.467.113.955.219,1.423a5.938,5.938,0,0,0,1.571,2.59,2.826,2.826,0,0,0,.8.676,1.054,1.054,0,0,0,1.009,0,1.8,1.8,0,0,1-.527-.919,4.726,4.726,0,0,1-.184-1.482,5.479,5.479,0,0,0-.073-2.48,3.081,3.081,0,0,0-.955-1.075,5.093,5.093,0,0,0-.853-.561,5.266,5.266,0,0,0-1.829-.465C643.6,491.8,644.309,492.537,644.566,492.845Z" transform="translate(-579.968 -445.495)"/>
    <path id="Path_150" data-name="Path 150" class="cls-9" d="M644.566,491.712a3.224,3.224,0,0,1,.664,1.331c.11.467.113.955.219,1.423a5.937,5.937,0,0,0,1.571,2.59,2.826,2.826,0,0,0,.8.676,1.054,1.054,0,0,0,1.009,0,1.8,1.8,0,0,1-.527-.919,4.726,4.726,0,0,1-.184-1.482,5.479,5.479,0,0,0-.073-2.48,3.081,3.081,0,0,0-.955-1.075,5.089,5.089,0,0,0-.853-.561,5.266,5.266,0,0,0-1.829-.465C643.6,490.666,644.309,491.4,644.566,491.712Z" transform="translate(-579.968 -444.499)"/>
    <path id="Path_151" data-name="Path 151" class="cls-16" d="M561.687,260.435h-.821a.576.576,0,1,0,0-1.15h-6.655a.576.576,0,0,0,0,1.15h.822a.576.576,0,1,0,0,1.15h-1.15a.576.576,0,1,0,0,1.15h6.655a.576.576,0,1,0,0-1.15h1.15a.576.576,0,1,0,0-1.15Z" transform="translate(-500.051 -240.678)"/>
    <path id="Path_152" data-name="Path 152" class="cls-16" d="M831.687,260.435h-.821a.576.576,0,1,0,0-1.15h-6.654a.576.576,0,0,0,0,1.15h.821a.576.576,0,1,0,0,1.15h-1.15a.576.576,0,1,0,0,1.15h6.655a.576.576,0,1,0,0-1.15h1.15a.576.576,0,1,0,0-1.15Z" transform="translate(-737.812 -240.678)"/>
    <path id="Path_153" data-name="Path 153" class="cls-16" d="M256.687,383.435h-.822a.576.576,0,1,0,0-1.15h-6.655a.576.576,0,0,0,0,1.15h.822a.576.576,0,0,0,0,1.15h-1.15a.576.576,0,1,0,0,1.15h6.655a.576.576,0,1,0,0-1.15h1.15a.576.576,0,0,0,0-1.15Z" transform="translate(-231.47 -348.991)"/>
    <path id="Path_154" data-name="Path 154" class="cls-17" d="M887.678,543.151s-2.946-10,.553-17.363a15.793,15.793,0,0,0,1.278-9.911,26.566,26.566,0,0,0-1.4-4.657" transform="translate(-793.499 -462.53)"/>
    <path id="Path_155" data-name="Path 155" class="cls-7" d="M885.255,455.559c0,1.226-2.22,4.776-2.22,4.776s-2.22-3.555-2.22-4.776a2.22,2.22,0,1,1,4.438,0Z" transform="translate(-788.476 -411.515)"/>
    <path id="Path_156" data-name="Path 156" class="cls-7" d="M915.861,504.241c-.666,1.029-4.461,2.806-4.461,2.806s.069-4.19.736-5.219a2.22,2.22,0,0,1,3.725,2.412Z" transform="translate(-815.409 -453.408)"/>
    <path id="Path_157" data-name="Path 157" class="cls-7" d="M908.567,595.354c-1.095.552-5.267.171-5.267.171s2.174-3.582,3.269-4.134a2.22,2.22,0,1,1,2,3.964Z" transform="translate(-808.276 -532.918)"/>
    <path id="Path_158" data-name="Path 158" class="cls-7" d="M891.763,670.1c-.985.728-5.163,1.058-5.163,1.058s1.538-3.9,2.523-4.627a2.22,2.22,0,1,1,2.64,3.569Z" transform="translate(-793.57 -598.911)"/>
    <path id="Path_159" data-name="Path 159" class="cls-7" d="M867.692,526.815c.879.854,4.976,1.739,4.976,1.739s-1-4.068-1.882-4.923a2.22,2.22,0,0,0-3.093,3.183Z" transform="translate(-776.362 -472.938)"/>
    <path id="Path_160" data-name="Path 160" class="cls-7" d="M843.9,609.644c1.095.552,5.267.171,5.267.171s-2.174-3.582-3.269-4.134a2.22,2.22,0,1,0-2,3.964Z" transform="translate(-754.891 -545.501)"/>
    <path id="Path_161" data-name="Path 161" class="cls-7" d="M838.815,697.258c.985.728,5.163,1.058,5.163,1.058s-1.538-3.9-2.524-4.627a2.22,2.22,0,1,0-2.64,3.569Z" transform="translate(-750.698 -622.828)"/>
    <path id="Path_162" data-name="Path 162" class="cls-15" d="M885.255,455.559c0,1.226-2.22,4.776-2.22,4.776s-2.22-3.555-2.22-4.776a2.22,2.22,0,1,1,4.438,0Z" transform="translate(-788.476 -411.515)"/>
    <path id="Path_163" data-name="Path 163" class="cls-15" d="M915.861,504.241c-.666,1.029-4.461,2.806-4.461,2.806s.069-4.19.736-5.219a2.22,2.22,0,0,1,3.725,2.412Z" transform="translate(-815.409 -453.408)"/>
    <path id="Path_164" data-name="Path 164" class="cls-15" d="M908.567,595.354c-1.095.552-5.267.171-5.267.171s2.174-3.582,3.269-4.134a2.22,2.22,0,1,1,2,3.964Z" transform="translate(-808.276 -532.918)"/>
    <path id="Path_165" data-name="Path 165" class="cls-15" d="M891.763,670.1c-.985.728-5.163,1.058-5.163,1.058s1.538-3.9,2.523-4.627a2.22,2.22,0,1,1,2.64,3.569Z" transform="translate(-793.57 -598.911)"/>
    <path id="Path_166" data-name="Path 166" class="cls-15" d="M867.692,526.815c.879.854,4.976,1.739,4.976,1.739s-1-4.068-1.882-4.923a2.22,2.22,0,0,0-3.093,3.183Z" transform="translate(-776.362 -472.938)"/>
    <path id="Path_167" data-name="Path 167" class="cls-15" d="M843.9,609.644c1.095.552,5.267.171,5.267.171s-2.174-3.582-3.269-4.134a2.22,2.22,0,1,0-2,3.964Z" transform="translate(-754.891 -545.501)"/>
    <path id="Path_168" data-name="Path 168" class="cls-15" d="M838.815,697.258c.985.728,5.163,1.058,5.163,1.058s-1.538-3.9-2.524-4.627a2.22,2.22,0,1,0-2.64,3.569Z" transform="translate(-750.698 -622.828)"/>
    <path id="Path_169" data-name="Path 169" class="cls-17" d="M305.678,541.15s-2.946-10,.553-17.363a15.793,15.793,0,0,0,1.278-9.911,26.569,26.569,0,0,0-1.4-4.657" transform="translate(-280.993 -460.769)"/>
    <path id="Path_170" data-name="Path 170" class="cls-7" d="M303.255,453.559c0,1.226-2.22,4.776-2.22,4.776s-2.22-3.555-2.22-4.776a2.22,2.22,0,1,1,4.438,0Z" transform="translate(-275.971 -409.754)"/>
    <path id="Path_171" data-name="Path 171" class="cls-7" d="M333.861,502.24c-.666,1.029-4.461,2.806-4.461,2.806s.069-4.19.736-5.219a2.22,2.22,0,0,1,3.725,2.412Z" transform="translate(-302.904 -451.646)"/>
    <path id="Path_172" data-name="Path 172" class="cls-7" d="M326.567,593.354c-1.095.552-5.267.171-5.267.171s2.174-3.582,3.269-4.134a2.22,2.22,0,1,1,2,3.964Z" transform="translate(-295.771 -531.156)"/>
    <path id="Path_173" data-name="Path 173" class="cls-7" d="M309.763,668.1c-.985.728-5.163,1.058-5.163,1.058s1.538-3.9,2.523-4.627a2.22,2.22,0,1,1,2.64,3.569Z" transform="translate(-281.065 -597.15)"/>
    <path id="Path_174" data-name="Path 174" class="cls-7" d="M285.693,524.815c.879.854,4.976,1.739,4.976,1.739s-1-4.068-1.882-4.923a2.22,2.22,0,0,0-3.093,3.183Z" transform="translate(-263.857 -471.177)"/>
    <path id="Path_175" data-name="Path 175" class="cls-7" d="M261.9,607.644c1.095.552,5.267.171,5.267.171s-2.174-3.582-3.269-4.134a2.22,2.22,0,1,0-2,3.964Z" transform="translate(-242.386 -543.74)"/>
    <path id="Path_176" data-name="Path 176" class="cls-7" d="M256.815,695.258c.985.728,5.163,1.058,5.163,1.058s-1.538-3.9-2.524-4.627a2.22,2.22,0,1,0-2.64,3.569Z" transform="translate(-238.192 -621.067)"/>
    <path id="Path_177" data-name="Path 177" class="cls-15" d="M303.255,453.559c0,1.226-2.22,4.776-2.22,4.776s-2.22-3.555-2.22-4.776a2.22,2.22,0,1,1,4.438,0Z" transform="translate(-275.971 -409.754)"/>
    <path id="Path_178" data-name="Path 178" class="cls-15" d="M333.861,502.24c-.666,1.029-4.461,2.806-4.461,2.806s.069-4.19.736-5.219a2.22,2.22,0,0,1,3.725,2.412Z" transform="translate(-302.904 -451.646)"/>
    <path id="Path_179" data-name="Path 179" class="cls-15" d="M326.567,593.354c-1.095.552-5.267.171-5.267.171s2.174-3.582,3.269-4.134a2.22,2.22,0,1,1,2,3.964Z" transform="translate(-295.771 -531.156)"/>
    <path id="Path_180" data-name="Path 180" class="cls-15" d="M309.763,668.1c-.985.728-5.163,1.058-5.163,1.058s1.538-3.9,2.523-4.627a2.22,2.22,0,1,1,2.64,3.569Z" transform="translate(-281.065 -597.15)"/>
    <path id="Path_181" data-name="Path 181" class="cls-15" d="M285.693,524.815c.879.854,4.976,1.739,4.976,1.739s-1-4.068-1.882-4.923a2.22,2.22,0,0,0-3.093,3.183Z" transform="translate(-263.857 -471.177)"/>
    <path id="Path_182" data-name="Path 182" class="cls-15" d="M261.9,607.644c1.095.552,5.267.171,5.267.171s-2.174-3.582-3.269-4.134a2.22,2.22,0,1,0-2,3.964Z" transform="translate(-242.386 -543.74)"/>
    <path id="Path_183" data-name="Path 183" class="cls-15" d="M256.815,695.258c.985.728,5.163,1.058,5.163,1.058s-1.538-3.9-2.524-4.627a2.22,2.22,0,1,0-2.64,3.569Z" transform="translate(-238.192 -621.067)"/>
  </g>
</svg>
