<svg id="Group_93" data-name="Group 93" xmlns="http://www.w3.org/2000/svg" width="113" height="61.662" viewBox="0 0 113 61.662">
  <defs>
    <style>
      .cls-1 {
        fill: #f6a5a5;
      }

      .cls-2 {
        fill: #f2f2f2;
      }

      .cls-3 {
        fill: #ff6363;
        opacity: 0.3;
      }

      .cls-4 {
        fill: #2f2e41;
      }

      .cls-5 {
        fill: #ffb8b8;
      }

      .cls-6 {
        opacity: 0.1;
      }

      .cls-7 {
        fill: #9f616a;
      }

      .cls-8 {
        fill: #6c63ff;
      }
    </style>
  </defs>
  <path id="Path_184" data-name="Path 184" class="cls-1" d="M965.4,655.661c0-3.366-1.708-6.094-3.814-6.094-1.324,0-2.49,1.078-3.174,2.715a1.911,1.911,0,0,0-.729-.146,2.285,2.285,0,0,0-1.708.88c-.617-2.04-1.924-3.448-3.437-3.448-1.415,0-2.649,1.232-3.307,3.059a2.084,2.084,0,0,0-1.306-.491c-1.617,0-2.927,2.094-2.927,4.677a6.816,6.816,0,0,0,.461,2.518h19.172A8.669,8.669,0,0,0,965.4,655.661Z" transform="translate(-852.401 -597.856)"/>
  <path id="Path_185" data-name="Path 185" class="cls-2" d="M218.059,209.5c-3-6.5-8.883-12.042-15.984-12.945a10.814,10.814,0,0,0-5.58.6c-2.287.971-3.972,2.932-5.676,4.741a68.439,68.439,0,0,1-12.028,10.133,17.662,17.662,0,0,1-7.056,3.137c-5.153.735-10.249-2.779-12.6-7.423-1.468-2.9-2.146-6.307-3.333-9.324-1.367,0-2.995,0-4.746.006-4.842.022-8.783.094-8.783.094s4.685-6.205,8.765-3.906c1.3.735,2.67,1.39,3.925,1.943a10.984,10.984,0,0,0-2.85-3.6c-2.44-1.957-5.745-2.506-8.869-2.36a17.191,17.191,0,0,0-9.258,2.95c-4.749,3.417-6.71,9.433-8.389,15.038l4.057,2.034c1.74-1.5,4.285-2.993,6.631-1.671a55.721,55.721,0,0,0,8.769,3.825s-3.909-.035-8.751-.013c-.813,0-1.6.009-2.348.015L179,235.349c14.857.209,26.06-.594,40.178,0,.736.031,2.392-3.829,2.4-4.844C221.615,223.346,221.062,215.995,218.059,209.5Zm-14.427,1.948c-4.842.022-8.783.094-8.783.094s4.685-6.205,8.765-3.906a55.722,55.722,0,0,0,8.769,3.825S208.474,211.422,203.632,211.444Z" transform="translate(-118.734 -186.881)"/>
  <path id="Path_186" data-name="Path 186" class="cls-3" d="M837.1,555.15c0-2.447-1.515-4.431-3.384-4.431a3.269,3.269,0,0,0-2.816,1.974,2.025,2.025,0,0,0-.647-.106,2.2,2.2,0,0,0-1.515.64,3.445,3.445,0,0,0-3.049-2.507,3.353,3.353,0,0,0-2.934,2.224,2.1,2.1,0,0,0-1.158-.357c-1.434,0-2.6,1.522-2.6,3.4a4.177,4.177,0,0,0,.409,1.831h17.009A5.359,5.359,0,0,0,837.1,555.15Z" transform="translate(-739.585 -509.35)"/>
  <path id="Path_187" data-name="Path 187" class="cls-4" d="M186.42,587.446H82v-.209H186.316Z" transform="translate(-73.42 -525.795)"/>
  <path id="Path_188" data-name="Path 188" class="cls-4" d="M104.42,463.446H0v-.209H104.316Z" transform="translate(0 -414.769)"/>
  <path id="Path_189" data-name="Path 189" class="cls-5" d="M483.63,404.507s.658-4.823,1.754-3.507,0,3.288,0,3.288l-.877,1.1-.877-.658Z" transform="translate(-439.305 -375.092)"/>
  <path id="Path_190" data-name="Path 190" class="cls-1" d="M452.86,433.794s2.192-2.411,2.631-1.973,1.754.658,1.534,1.534-4.823,3.727-4.823,3.727Z" transform="translate(-411.166 -402.844)"/>
  <path id="Path_191" data-name="Path 191" class="cls-6" d="M452.86,433.794s2.192-2.411,2.631-1.973,1.754.658,1.534,1.534-4.823,3.727-4.823,3.727Z" transform="translate(-411.166 -402.844)"/>
  <path id="Path_192" data-name="Path 192" class="cls-5" d="M338.946,449.038v1.754s-.219,3.946,1.1,3.727.658-3.507.658-3.507l-.219-1.973Z" transform="translate(-309.748 -418.308)"/>
  <path id="Path_193" data-name="Path 193" class="cls-5" d="M257.18,570.557s-1.973,3.069-2.631,3.288-4.165,2.192-4.6,4.165l-3.069,3.946,1.535,1.973s7.015-7.453,8.988-8.111,3.946-3.946,3.946-3.946Z" transform="translate(-227.324 -527.112)"/>
  <path id="Path_194" data-name="Path 194" class="cls-5" d="M432.2,522.369s4.165.658,3.507,3.288-7.015,8.111-7.015,8.111l-.219,1.315-2.411.438-1.1-1.1.219-.658s2.631-2.411,2.85-3.288,2.631-4.384,3.727-4.6L430.226,525Z" transform="translate(-386.779 -483.966)"/>
  <path id="Path_195" data-name="Path 195" class="cls-4" d="M230.651,669.915s.877-1.315-.438-1.1-2.192.438-2.192,1.315,1.1,7.015,2.411,6.576.219-2.411.219-2.411.658-1.754,1.1-1.973.438-1.315,0-1.315S230.432,670.354,230.651,669.915Z" transform="translate(-210.44 -615.071)"/>
  <path id="Path_196" data-name="Path 196" class="cls-4" d="M415.9,629.243s0-1.1-.877,0-1.315,1.973-.438,2.631a44.113,44.113,0,0,0,3.946,2.192s3.288.658,2.85-.877c0,0-2.192-1.1-2.192-1.973s0-2.411-.658-1.973S415.9,629.9,415.9,629.243Z" transform="translate(-377.061 -579.222)"/>
  <path id="Path_197" data-name="Path 197" class="cls-4" d="M341.022,476.275s-3.069.438-2.85,4.823c0,0-3.946,3.946-2.85,5.261s3.507,3.727,4.384,3.069,3.507-5.7,3.507-5.7,6.138,2.192,7.234,1.1a15.017,15.017,0,0,0,2.192-3.727l-5.48-2.85Z" transform="translate(-306.343 -442.695)"/>
  <circle id="Ellipse_30" data-name="Ellipse 30" class="cls-5" cx="2.631" cy="2.631" r="2.631" transform="translate(40.598 15.824)"/>
  <path id="Path_198" data-name="Path 198" class="cls-5" d="M437.089,333.8a16.319,16.319,0,0,1-1.973,2.631c-.438.219,3.069,2.411,3.069,2.411s0-2.85,1.1-3.507Z" transform="translate(-395.834 -315.131)"/>
  <path id="Path_199" data-name="Path 199" class="cls-1" d="M391.684,353.956s-3.507-1.1-4.165.658-2.192,5.042-1.973,7.234.658,1.754,0,2.411-1.1.219-.877,1.1.438.877.219,1.315,2.631,1.973,5.042,2.192l2.411.219s0-3.946.438-4.823a12.823,12.823,0,0,0,1.315-3.288v-1.74a6.655,6.655,0,0,0-.877-3.3h0A12.047,12.047,0,0,0,391.684,353.956Z" transform="translate(-350.648 -332.871)"/>
  <path id="Path_200" data-name="Path 200" class="cls-1" d="M342.3,365.232s-8.111.658-8.988,2.85-1.315,6.576-.438,6.576,1.973.438,2.192,0,1.1-4.823,1.315-4.823,6.8-.658,6.8-.658S346.031,365.67,342.3,365.232Z" transform="translate(-303.899 -343.27)"/>
  <path id="Path_201" data-name="Path 201" class="cls-4" d="M448.06,305.454s.7-1.213,1.571-.159,2.292-.883,2.074-1.3-.987.019-2.306-.413-3.859-1.309-4.285,1.556.588,2.565.588,2.565.464-2.539.884-1.809l.42.729.364.09Z" transform="translate(-404.726 -287.652)"/>
  <circle id="Ellipse_31" data-name="Ellipse 31" class="cls-4" cx="3.209" cy="3.209" r="3.209" transform="translate(64.937 4.671)"/>
  <path id="Path_202" data-name="Path 202" class="cls-7" d="M699.813,246.173s.166,2.99-.166,2.99,2.076,1.412,2.076,1.412l1.495-.83v-1s-1.993-.249-1.163-2.408S699.813,246.173,699.813,246.173Z" transform="translate(-632.693 -235.917)"/>
  <path id="Path_203" data-name="Path 203" class="cls-7" d="M572.7,411.517l-.249,2.491.83.249.664-.664.249-2.076Z" transform="translate(-512.558 -368.46)"/>
  <path id="Path_204" data-name="Path 204" class="cls-7" d="M689.124,419.324l.415,1.578,1.163.747,1.246-.664-1.412-2.325Z" transform="translate(-617.021 -374.856)"/>
  <circle id="Ellipse_32" data-name="Ellipse 32" class="cls-7" cx="2.408" cy="2.408" r="2.408" transform="translate(65.501 6.726)"/>
  <path id="Path_205" data-name="Path 205" class="cls-7" d="M680.9,285.4l-.581-.249a2.355,2.355,0,0,1-1.08-1.744,5.641,5.641,0,0,1,.831-2.657l1.329-.415,1.561,1.271.017,2.051Z" transform="translate(-614.44 -267.254)"/>
  <path id="Path_206" data-name="Path 206" class="cls-7" d="M645.294,284.464l-.332-.166a1.823,1.823,0,0,0-1.827,1.91c-.166,1.993-.747,5.315-.747,5.315a10.364,10.364,0,0,0-1.246,4.816l-.664,2.159s-.913,3.156.166,3.156,1-3.4,1-3.4,1.993-4.816,2.159-5.647,1.578-4.733,1.163-5.813A3.052,3.052,0,0,1,645.294,284.464Z" transform="translate(-579.419 -270.803)"/>
  <path id="Path_207" data-name="Path 207" class="cls-7" d="M700.082,335.89v.913s.581.664.332,1.08a7.241,7.241,0,0,0-.5,1.246l1.163,1.827,3.9.332.776-5.2Z" transform="translate(-632.962 -316.998)"/>
  <path id="Path_208" data-name="Path 208" class="cls-7" d="M736.425,176.361l.664-.332a7.473,7.473,0,0,1,2.574-1.163l3.571-2.408,2.325-5.564s-.083-2.989.581-2.657.581,2.906.581,2.906-1.246,5.149-2.325,6.56-4.982,3.737-4.982,3.737-1.08,1.246-1,1.827S736.425,176.361,736.425,176.361Z" transform="translate(-665.651 -163.282)"/>
  <path id="Path_209" data-name="Path 209" class="cls-4" d="M639.087,365.4a1.036,1.036,0,0,0-1.495.415c-.581,1-1.661,1.246-2.325,4.235s-2.242,7.723-2.657,8.055-2.159,3.82-1.163,8.719h1.661l1.412-7.059s4.567-5.647,4.9-7.972l1.495,8.719s.083,3.322,1.329,4.9l1.329,3.156,1.744-.83-1.993-7.972s1-8.055.332-10.3l-.1-2.939A8.307,8.307,0,0,1,639.087,365.4Z" transform="translate(-571.386 -343.271)"/>
  <path id="Path_210" data-name="Path 210" class="cls-4" d="M622.8,583.215h-1c-.166,0-1.495,1.08-.913,1.661s1.495,1.661,1.495,1.661,3.239.412,3.322-.169-1.412-1.824-1.412-1.824l-.415-1.329S623.045,582.3,622.8,583.215Z" transform="translate(-562.07 -538.082)"/>
  <path id="Path_211" data-name="Path 211" class="cls-4" d="M748.994,590.429a15.845,15.845,0,0,1-1.661-.166c-.249-.083-.747,2.159,0,2.325s3.82.415,3.82.415,2.408-.083,2.242-.747-3.4-1.993-3.4-1.993S749.575,589.433,748.994,590.429Z" transform="translate(-675.064 -544.466)"/>
  <path id="Path_212" data-name="Path 212" class="cls-1" d="M691.093,275.276l-.415-.249-.5.415s1.495,1,1.163,1.91a17.77,17.77,0,0,1-1.744,2.823s1.246,1.412,1.246,1.91c0,0,3.239-1.163,5.647,0,0,0,0-1.661.332-1.993a2.083,2.083,0,0,0-.332-2.491,18.211,18.211,0,0,1-1.578-2.325l-.83-.5-.428.136s.843.944.013,1.027A3.642,3.642,0,0,1,691.093,275.276Z" transform="translate(-623.724 -262.28)"/>
  <path id="Path_213" data-name="Path 213" class="cls-4" d="M721.264,178.347a1.754,1.754,0,0,1-1.088.57c-.725.1-.155,1.244-.155,1.244a.655.655,0,0,1,.207-.777C720.642,179.021,721.264,178.813,721.264,178.347Z" transform="translate(-650.772 -175.939)"/>
  <circle id="Ellipse_33" data-name="Ellipse 33" class="cls-4" cx="0.894" cy="0.894" r="0.894" transform="translate(68.199 3.566)"/>
  <path id="Path_214" data-name="Path 214" class="cls-8" d="M708.85,195.8a6.332,6.332,0,0,0-2.511-.624l.16-.611a4.907,4.907,0,0,0,2.511.624Z" transform="translate(-638.712 -190.464)"/>
  <path id="Path_215" data-name="Path 215" class="cls-4" d="M679.28,206.89a5.266,5.266,0,0,1-3.267,1.711c-2.178.311-.467,3.733-.467,3.733a1.967,1.967,0,0,1,.622-2.333C677.414,208.912,679.28,208.29,679.28,206.89Z" transform="translate(-610.571 -201.495)"/>
  <path id="Path_216" data-name="Path 216" class="cls-4" d="M716.974,206.1s.622,2.178,1.556,2.489.467,3.578-1.089,3.889c0,0,1.322-1.789.544-3.189S716.741,206.8,716.974,206.1Z" transform="translate(-648.181 -200.785)"/>
  <rect id="Rectangle_60" data-name="Rectangle 60" class="cls-4" width="5.73" height="0.664" transform="translate(77.708 1.661)"/>
  <ellipse id="Ellipse_34" data-name="Ellipse 34" class="cls-4" cx="0.498" cy="1.993" rx="0.498" ry="1.993" transform="translate(82.94 0)"/>
  <ellipse id="Ellipse_35" data-name="Ellipse 35" class="cls-4" cx="0.498" cy="1.993" rx="0.498" ry="1.993" transform="translate(77.21 0)"/>
  <rect id="Rectangle_61" data-name="Rectangle 61" class="cls-4" width="5.73" height="0.664" transform="translate(80.615 46.339)"/>
  <ellipse id="Ellipse_36" data-name="Ellipse 36" class="cls-4" cx="0.498" cy="1.993" rx="0.498" ry="1.993" transform="translate(85.846 44.678)"/>
  <ellipse id="Ellipse_37" data-name="Ellipse 37" class="cls-4" cx="0.498" cy="1.993" rx="0.498" ry="1.993" transform="translate(80.116 44.678)"/>
  <path id="Path_217" data-name="Path 217" class="cls-3" d="M99.1,555.15c0-2.447-1.515-4.431-3.384-4.431a3.27,3.27,0,0,0-2.816,1.974,2.024,2.024,0,0,0-.647-.106,2.2,2.2,0,0,0-1.515.64,3.446,3.446,0,0,0-3.049-2.507,3.353,3.353,0,0,0-2.934,2.224,2.1,2.1,0,0,0-1.158-.357c-1.434,0-2.6,1.522-2.6,3.4a4.177,4.177,0,0,0,.409,1.831H98.418A5.357,5.357,0,0,0,99.1,555.15Z" transform="translate(-78.802 -509.35)"/>
</svg>
